<svg width="246" height="233" viewBox="0 0 246 233" fill="none" xmlns="http://www.w3.org/2000/svg">
<path d="M123 136.111C123 146.543 127.144 156.547 134.52 163.924C141.897 171.3 151.901 175.444 162.333 175.444C172.765 175.444 182.77 171.3 190.146 163.924C197.523 156.547 201.667 146.543 201.667 136.111C201.667 125.679 197.523 115.675 190.146 108.298C182.77 100.922 172.765 96.7777 162.333 96.7777C151.901 96.7777 141.897 100.922 134.52 108.298C127.144 115.675 123 125.679 123 136.111Z" stroke="black" stroke-width="10" stroke-linecap="round" stroke-linejoin="round"/>
<path d="M136.111 168.889V227.889L162.333 208.222L188.555 227.889V168.889" stroke="black" stroke-width="10" stroke-linecap="round" stroke-linejoin="round"/>
<path d="M96.7778 188.556H31.2222C24.2677 188.556 17.5979 185.793 12.6803 180.875C7.76269 175.958 5 169.288 5 162.333V31.2222C5 16.8 16.8 5 31.2222 5H214.778C221.732 5 228.402 7.76269 233.32 12.6803C238.237 17.5979 241 24.2677 241 31.2222V162.333C240.995 166.932 239.781 171.448 237.48 175.429C235.179 179.41 231.871 182.716 227.889 185.016M44.3333 57.4444H201.667M44.3333 96.7778H83.6667M44.3333 136.111H70.5556" stroke="black" stroke-width="10" stroke-linecap="round" stroke-linejoin="round"/>
</svg>
