<svg width="120" height="114" viewBox="0 0 120 114" fill="none" xmlns="http://www.w3.org/2000/svg">
<path d="M60 66.0833C60 71.0229 61.9623 75.7603 65.4551 79.2531C68.948 82.746 73.6853 84.7083 78.625 84.7083C83.5647 84.7083 88.302 82.746 91.7949 79.2531C95.2877 75.7603 97.25 71.0229 97.25 66.0833C97.25 61.1436 95.2877 56.4063 91.7949 52.9134C88.302 49.4205 83.5647 47.4583 78.625 47.4583C73.6853 47.4583 68.948 49.4205 65.4551 52.9134C61.9623 56.4063 60 61.1436 60 66.0833Z" stroke="white" stroke-width="7" stroke-linecap="round" stroke-linejoin="round"/>
<path d="M66.2083 81.6042V109.542L78.625 100.229L91.0416 109.542V81.6042" stroke="white" stroke-width="7" stroke-linecap="round" stroke-linejoin="round"/>
<path d="M47.5833 90.9167H16.5417C13.2486 90.9167 10.0903 89.6085 7.76176 87.2799C5.43318 84.9513 4.125 81.7931 4.125 78.5V16.4167C4.125 9.5875 9.7125 4 16.5417 4H103.458C106.751 4 109.91 5.30818 112.238 7.63676C114.567 9.96533 115.875 13.1236 115.875 16.4167V78.5C115.873 80.6774 115.298 82.816 114.208 84.7011C113.119 86.5862 111.552 88.1517 109.667 89.2404M22.75 28.8333H97.25M22.75 47.4583H41.375M22.75 66.0833H35.1667" stroke="white" stroke-width="7" stroke-linecap="round" stroke-linejoin="round"/>
</svg>
