<svg width="96" height="94" viewBox="0 0 96 94" fill="none" xmlns="http://www.w3.org/2000/svg">
<path d="M47.9976 0V94H52.7964V72.637H67.1976V94H96V0H47.9976ZM76.8 4.27176V12.8153H67.2024V4.27176H76.8ZM76.8 25.6348H67.2024V17.0913H76.8V25.6348ZM76.8 38.4544H67.2024V29.9108H76.8V38.4544ZM76.8 51.2696H67.2024V42.7261H76.8V51.2696ZM76.8 64.0892H67.2024V55.5457H76.8V64.0892ZM52.7964 4.27176H62.394V12.8153H52.7964V4.27176ZM52.7964 17.087H62.394V25.6348H52.7964V17.087ZM52.7964 29.9108H62.394V38.4544H52.7964V29.9108ZM52.7964 42.7261H62.394V51.2696H52.7964V42.7261ZM52.7964 55.5457H62.394V64.0892H52.7964V55.5457ZM91.1964 85.4565H72.0012V72.637H91.1964V85.4565ZM91.1964 64.0892H81.5988V55.5457H91.1964V64.0892ZM91.1964 51.2739H81.5988V42.7304H91.1964V51.2739ZM91.1964 38.4544H81.5988V29.9108H91.1964V38.4544ZM91.1964 25.6391H81.5988V17.087H91.1964V25.6391ZM91.1964 12.8195H81.5988V4.27603H91.1964V12.8195ZM0 29.9066V94H14.3964V76.9087H28.7976V93.9957H43.1988V29.9108L0 29.9066ZM4.7988 34.1783H19.1952V42.7261H4.7988V34.1783ZM4.7988 46.9979H19.1952V55.5414H4.7988V46.9979ZM4.7988 68.3609V59.8174H19.1952V68.3609H4.7988ZM38.4 68.3609H24.0036V59.8174H38.4V68.3609ZM38.4 55.5457H24.0036V47.0021H38.4V55.5457ZM38.4 42.7304H24.0036V34.1783H38.4V42.7304Z" fill="white"/>
</svg>
