<svg width="69" height="69" viewBox="0 0 69 69" fill="none" xmlns="http://www.w3.org/2000/svg">
<rect y="1" width="69" height="67" rx="9" fill="#2E3192"/>
<rect x="2" y="3" width="65" height="63" rx="8" fill="#2E3192" stroke="white" stroke-width="2"/>
<path d="M7.98128 24.0357C9.20038 23.5801 10.4652 23.7178 11.4431 24.5766C11.4431 24.5766 12.2745 25.4719 12.5249 26.0912C12.9525 27.1487 12.2003 29.1202 12.2003 29.1202L24.7494 40.6956C24.7494 40.6956 25.2768 40.5874 25.6148 40.5874C26.2908 40.5874 26.6912 40.5267 27.3457 40.6956C28.174 40.9094 29.1848 41.8856 29.1848 41.8856L33.7284 39.6138L33.9448 41.5611L29.7257 43.6165C29.7257 43.6165 29.9148 44.9589 29.5093 45.672C28.8895 46.762 28.0534 47.2866 26.8048 47.4029C25.3373 47.5395 24.1846 46.9503 23.4512 45.672C22.7784 44.4994 23.4512 42.2102 23.4512 42.2102L11.2267 30.3102C11.2267 30.3102 10.0585 30.6348 9.27945 30.6348C8.41401 30.6348 7.11583 29.7693 7.11583 29.7693C6.2148 28.9295 5.88629 27.8549 6.03402 26.6321C6.18602 25.3738 6.79407 24.4795 7.98128 24.0357Z" fill="#D9D9D9"/>
<path d="M36.5411 34.8539C36.3248 34.8539 35.6757 33.8802 35.6757 33.8802C35.6757 33.8802 35.0986 36.1002 35.1348 37.5584C35.1636 38.7181 35.1541 39.6846 35.4593 40.8038C35.8783 42.3402 36.2239 43.1079 37.1902 44.3738C37.991 45.4229 38.7503 45.9881 39.8947 46.6456C40.9152 47.2319 42.5993 47.6192 42.5993 47.6192C42.5993 47.6192 45.1174 47.9413 46.7102 47.5111C47.5887 47.2737 48.8738 46.5374 48.8738 46.5374C48.8738 46.5374 50.5607 45.3818 51.362 44.3738C52.1382 43.3972 52.8765 41.5611 52.8765 41.5611L51.1456 37.5584C51.1456 37.5584 51.2208 40.1353 50.4965 41.5611C49.9645 42.6083 48.6574 43.9411 48.6574 43.9411C48.6574 43.9411 47.1948 44.9992 45.9529 45.3474C44.7325 45.6896 43.1402 45.3474 43.1402 45.3474C43.1402 45.3474 41.4921 45.0182 40.652 44.3738C40.0029 43.8759 39.0293 42.7511 39.0293 42.7511C39.0293 42.7511 38.0552 41.6962 37.7311 40.8038C37.3119 39.6495 37.4066 37.5584 37.4066 37.5584L37.6229 34.6375C37.6229 34.6375 36.7575 34.8538 36.5411 34.8539Z" fill="#D9D9D9"/>
<path d="M52.011 45.672L50.7129 46.862L56.9874 53.3528C56.9874 53.3528 56.7013 54.1969 56.6628 54.7592C56.595 55.7513 56.6488 56.4222 57.2037 57.2474C57.8588 58.2214 58.6272 58.7152 59.8001 58.7619C60.9707 58.8085 61.7768 58.3818 62.5046 57.4637C63.2306 56.5481 63.3856 55.6881 63.1537 54.5428C62.9811 53.6902 62.7194 53.1765 62.0719 52.5956C61.4236 52.0139 60.6924 51.6456 60.0165 51.7301L58.2856 51.9465L52.011 45.672Z" fill="#D9D9D9"/>
<path d="M38.3802 33.2311C38.3802 33.2311 37.638 33.572 37.1902 33.4475C36.1398 33.1555 35.4593 30.9593 35.4593 30.9593L34.9184 27.4975C34.9184 27.4975 34.7093 26.7403 35.4593 25.3339C36.2094 23.9275 43.3565 19.7085 43.3565 19.7085C43.3565 19.7085 44.1138 19.4921 45.1956 19.9248C46.2774 20.3576 46.9265 21.4394 46.9265 21.4394V26.6321L46.8183 29.5529L47.1429 30.0939L52.9847 30.2021C52.9847 30.2021 54.1747 30.9593 54.4992 31.7166C54.8238 32.4739 58.1774 41.1284 58.1774 41.1284C58.1774 41.1284 60.1246 40.2629 60.8819 40.1547C61.6392 40.0465 61.6023 40.342 61.8555 40.6956C62.1998 41.1766 61.8555 42.2102 61.8555 42.2102C61.8555 42.2102 59.2008 44.4288 57.2037 44.5902C56.7405 44.6276 56.0137 44.3738 56.0137 44.3738L51.6865 34.6375L43.2484 34.5293L41.9502 33.4475C41.5175 33.0869 40.8684 32.1493 40.8684 31.7166C40.8684 31.2839 40.7602 26.9927 40.7602 25.0094L37.8393 27.4975V28.4712L38.8129 30.9593C38.8129 30.9593 39.1133 31.9145 38.9211 32.4739C38.8104 32.796 38.3802 33.2311 38.3802 33.2311Z" fill="#D9D9D9"/>
<path d="M46.7102 17.1121C46.0755 17.7435 45.4416 17.884 44.5465 17.8694C43.6912 17.8554 43.0046 17.808 42.3829 17.2203C41.8061 16.675 41.4093 16.2467 41.3011 15.273C41.1929 14.2994 41.4093 13.3258 41.842 12.5685C42.2747 11.8112 42.7075 11.4867 43.3565 11.1622C44.0056 10.8376 45.4904 11.0094 46.3856 11.5949C47.1707 12.1083 47.4177 12.7508 47.6838 13.6503C47.9115 14.42 47.5756 15.8139 47.5756 15.8139C47.5756 15.8139 47.179 16.6458 46.7102 17.1121Z" fill="#D9D9D9"/>
</svg>
