<svg width="112" height="105" viewBox="0 0 112 105" fill="none" xmlns="http://www.w3.org/2000/svg">
<path d="M16.8 33.6941C16.8 24.7578 20.93 16.1876 28.2814 9.86876C35.6328 3.5499 45.6035 0 56 0C66.3965 0 76.3672 3.5499 83.7186 9.86876C91.07 16.1876 95.2 24.7578 95.2 33.6941V38.676C104.698 39.8456 112 46.8684 112 55.3545V56.5579C112 65.1017 103.426 72.5914 93.3408 72.1919C89.1968 82.3964 78.6576 89.2748 67.284 91.0173C64.652 91.8452 61.5384 91.4553 58.8 91.4553C56.5722 91.4553 54.4356 90.6946 52.8603 89.3405C51.285 87.9865 50.4 86.15 50.4 84.2351C50.4 82.3202 51.285 80.4838 52.8603 79.1297C54.4356 77.7757 56.5722 77.015 58.8 77.015C63.2408 77.015 68.1576 76.4614 71.1592 79.9464C78.4168 76.9765 84 70.7046 84 62.5747V33.6941C84 27.311 81.05 21.1895 75.799 16.676C70.548 12.1625 63.4261 9.62687 56 9.62687C48.5739 9.62687 41.452 12.1625 36.201 16.676C30.95 21.1895 28 27.311 28 33.6941V63.778C28 66.0121 26.9675 68.1546 25.1296 69.7343C23.2918 71.3141 20.7991 72.2015 18.2 72.2015C13.3731 72.2015 8.74382 70.5534 5.33066 67.6196C1.91749 64.6859 6.46293e-07 60.7068 6.46293e-07 56.5579V55.3545C-0.00120932 51.3026 1.69657 47.3861 4.78215 44.3229C7.86772 41.2596 12.1344 39.2548 16.8 38.676V33.6941Z" fill="white"/>
</svg>
