<svg width="114" height="110" viewBox="0 0 114 110" fill="none" xmlns="http://www.w3.org/2000/svg">
<path d="M40.3275 67.375L57 57.6125L73.6725 67.375L69.255 49.0875L84.075 36.7125L64.5525 35.2L57 17.875L49.4475 35.2L29.925 36.7125L44.745 49.0875L40.3275 67.375ZM0 110V11C0 7.975 1.1172 5.38633 3.3516 3.234C5.586 1.08167 8.2688 0.00366667 11.4 0H102.6C105.735 0 108.42 1.078 110.654 3.234C112.888 5.39 114.004 7.97867 114 11V77C114 80.025 112.885 82.6155 110.654 84.7715C108.423 86.9275 105.739 88.0037 102.6 88H22.8L0 110ZM17.955 77H102.6V11H11.4V83.1875L17.955 77Z" fill="white"/>
</svg>
