<svg width="124" height="116" viewBox="0 0 124 116" fill="none" xmlns="http://www.w3.org/2000/svg">
<path fill-rule="evenodd" clip-rule="evenodd" d="M124 86.0423C123.991 86.3274 123.958 86.6117 123.901 86.8929C124.05 87.5387 124.028 88.2043 123.835 88.8419C123.642 89.4796 123.283 90.0735 122.785 90.5812C122.287 91.0888 121.661 91.4977 120.952 91.7785C120.243 92.0592 119.469 92.2049 118.686 92.2051H19.4857C18.3226 92.2051 17.1708 92.3975 16.0962 92.7711C15.0216 93.1448 14.0452 93.6926 13.2228 94.383C12.4003 95.0735 11.7479 95.8933 11.3028 96.7954C10.8577 97.6976 10.6286 98.6645 10.6286 99.641C10.6286 100.618 10.8577 101.584 11.3028 102.487C11.7479 103.389 12.4003 104.209 13.2228 104.899C14.0452 105.589 15.0216 106.137 16.0962 106.511C17.1708 106.885 18.3226 107.077 19.4857 107.077H118.686C120.095 107.077 121.447 107.547 122.443 108.384C123.44 109.22 124 110.355 124 111.538C124 112.722 123.44 113.857 122.443 114.693C121.447 115.53 120.095 116 118.686 116H19.4857C14.3178 116 9.36151 114.276 5.70723 111.209C2.05295 108.141 0 103.98 0 99.641V16.359C0 12.0203 2.05295 7.85934 5.70723 4.79143C9.36151 1.72353 14.3178 0 19.4857 0H114.434C119.72 0 124 3.59303 124 8.03077V86.0423ZM40.7429 23.7949C39.3334 23.7949 37.9817 24.2649 36.9851 25.1016C35.9885 25.9383 35.4286 27.0731 35.4286 28.2564C35.4286 29.4397 35.9885 30.5745 36.9851 31.4112C37.9817 32.2479 39.3334 32.7179 40.7429 32.7179H83.2571C84.6666 32.7179 86.0183 32.2479 87.0149 31.4112C88.0115 30.5745 88.5714 29.4397 88.5714 28.2564C88.5714 27.0731 88.0115 25.9383 87.0149 25.1016C86.0183 24.2649 84.6666 23.7949 83.2571 23.7949H40.7429Z" fill="white"/>
</svg>
