<svg width="269" height="92" viewBox="0 0 269 92" fill="none" xmlns="http://www.w3.org/2000/svg">
<rect x="10" y="12" width="249" height="67" rx="9" fill="#2E3192"/>
<rect x="12" y="14" width="245" height="63" rx="8" fill="#2E3192" stroke="white" stroke-width="2"/>
<path d="M88.2443 32.8182L96.017 54.858H96.3239L104.097 32.8182H107.42L97.8068 59H94.5341L84.9205 32.8182H88.2443ZM111.089 59V39.3636H114.107V59H111.089ZM112.624 36.0909C112.036 36.0909 111.528 35.8906 111.102 35.4901C110.685 35.0895 110.476 34.608 110.476 34.0455C110.476 33.483 110.685 33.0014 111.102 32.6009C111.528 32.2003 112.036 32 112.624 32C113.212 32 113.714 32.2003 114.132 32.6009C114.558 33.0014 114.771 33.483 114.771 34.0455C114.771 34.608 114.558 35.0895 114.132 35.4901C113.714 35.8906 113.212 36.0909 112.624 36.0909ZM125.411 59.4602C124.167 59.4602 123.037 59.2259 122.023 58.7571C121.009 58.2798 120.203 57.5938 119.607 56.6989C119.01 55.7955 118.712 54.7045 118.712 53.4261C118.712 52.3011 118.934 51.3892 119.377 50.6903C119.82 49.983 120.412 49.429 121.154 49.0284C121.895 48.6278 122.713 48.3295 123.608 48.1335C124.512 47.929 125.419 47.767 126.331 47.6477C127.525 47.4943 128.492 47.3793 129.233 47.3026C129.983 47.2173 130.529 47.0767 130.87 46.8807C131.219 46.6847 131.394 46.3437 131.394 45.858V45.7557C131.394 44.4943 131.049 43.5142 130.358 42.8153C129.676 42.1165 128.641 41.767 127.252 41.767C125.811 41.767 124.682 42.0824 123.864 42.7131C123.046 43.3437 122.471 44.017 122.138 44.733L119.275 43.7102C119.786 42.517 120.468 41.5881 121.32 40.9233C122.181 40.25 123.118 39.7812 124.132 39.517C125.155 39.2443 126.161 39.108 127.15 39.108C127.78 39.108 128.505 39.1847 129.323 39.3381C130.15 39.483 130.946 39.7855 131.713 40.2457C132.489 40.706 133.132 41.4006 133.644 42.3295C134.155 43.2585 134.411 44.5028 134.411 46.0625V59H131.394V56.3409H131.24C131.036 56.767 130.695 57.223 130.218 57.7088C129.74 58.1946 129.105 58.608 128.313 58.9489C127.52 59.2898 126.553 59.4602 125.411 59.4602ZM125.871 56.75C127.064 56.75 128.07 56.5156 128.888 56.0469C129.715 55.5781 130.337 54.973 130.755 54.2315C131.181 53.4901 131.394 52.7102 131.394 51.892V49.1307C131.266 49.2841 130.985 49.4247 130.55 49.5526C130.124 49.6719 129.63 49.7784 129.067 49.8722C128.513 49.9574 127.972 50.0341 127.444 50.1023C126.924 50.1619 126.502 50.2131 126.178 50.2557C125.394 50.358 124.661 50.5241 123.979 50.7543C123.306 50.9759 122.76 51.3125 122.343 51.7642C121.934 52.2074 121.729 52.8125 121.729 53.5795C121.729 54.6278 122.117 55.4205 122.892 55.9574C123.676 56.4858 124.669 56.75 125.871 56.75ZM140.327 59V32.8182H143.497V56.1875H155.668V59H140.327ZM160.168 59V39.3636H163.185V59H160.168ZM161.702 36.0909C161.114 36.0909 160.607 35.8906 160.18 35.4901C159.763 35.0895 159.554 34.608 159.554 34.0455C159.554 33.483 159.763 33.0014 160.18 32.6009C160.607 32.2003 161.114 32 161.702 32C162.29 32 162.793 32.2003 163.21 32.6009C163.636 33.0014 163.849 33.483 163.849 34.0455C163.849 34.608 163.636 35.0895 163.21 35.4901C162.793 35.8906 162.29 36.0909 161.702 36.0909ZM169.12 59V32.8182H172.137V42.483H172.392C172.614 42.142 172.921 41.7074 173.313 41.179C173.713 40.642 174.284 40.1648 175.026 39.7472C175.776 39.321 176.79 39.108 178.069 39.108C179.722 39.108 181.179 39.5213 182.441 40.348C183.702 41.1747 184.686 42.3466 185.394 43.8636C186.101 45.3807 186.455 47.1705 186.455 49.233C186.455 51.3125 186.101 53.1151 185.394 54.6406C184.686 56.1577 183.706 57.3338 182.453 58.169C181.201 58.9957 179.756 59.4091 178.12 59.4091C176.858 59.4091 175.848 59.2003 175.09 58.7827C174.331 58.3565 173.748 57.875 173.338 57.3381C172.929 56.7926 172.614 56.3409 172.392 55.983H172.034V59H169.12ZM172.086 49.1818C172.086 50.6648 172.303 51.973 172.738 53.1065C173.172 54.2315 173.807 55.1136 174.642 55.7528C175.478 56.3835 176.5 56.6989 177.711 56.6989C178.972 56.6989 180.025 56.3665 180.868 55.7017C181.721 55.0284 182.36 54.125 182.786 52.9915C183.221 51.8494 183.438 50.5795 183.438 49.1818C183.438 47.8011 183.225 46.5568 182.799 45.4489C182.381 44.3324 181.746 43.4503 180.894 42.8026C180.05 42.1463 178.989 41.8182 177.711 41.8182C176.483 41.8182 175.452 42.1293 174.617 42.7514C173.782 43.3651 173.151 44.2259 172.725 45.3338C172.299 46.4332 172.086 47.7159 172.086 49.1818ZM199.303 59.4091C197.411 59.4091 195.779 58.9915 194.407 58.1562C193.043 57.3125 191.99 56.1364 191.249 54.6278C190.516 53.1108 190.15 51.3466 190.15 49.3352C190.15 47.3239 190.516 45.5511 191.249 44.017C191.99 42.4744 193.022 41.2727 194.343 40.4119C195.672 39.5426 197.223 39.108 198.996 39.108C200.019 39.108 201.029 39.2784 202.026 39.6193C203.023 39.9602 203.931 40.5142 204.749 41.2812C205.567 42.0398 206.219 43.0455 206.705 44.2983C207.191 45.5511 207.434 47.0937 207.434 48.9261V50.2045H192.297V47.5966H204.365C204.365 46.4886 204.144 45.5 203.701 44.6307C203.266 43.7614 202.644 43.0753 201.834 42.5724C201.033 42.0696 200.087 41.8182 198.996 41.8182C197.794 41.8182 196.755 42.1165 195.877 42.7131C195.007 43.3011 194.338 44.0682 193.87 45.0142C193.401 45.9602 193.167 46.9744 193.167 48.0568V49.7955C193.167 51.2784 193.422 52.5355 193.934 53.5668C194.453 54.5895 195.174 55.3693 196.094 55.9062C197.015 56.4347 198.084 56.6989 199.303 56.6989C200.096 56.6989 200.811 56.5881 201.451 56.3665C202.098 56.1364 202.657 55.7955 203.125 55.3438C203.594 54.8835 203.956 54.3125 204.212 53.6307L207.127 54.4489C206.82 55.4375 206.304 56.3068 205.58 57.0568C204.855 57.7983 203.961 58.3778 202.895 58.7955C201.83 59.2045 200.632 59.4091 199.303 59.4091ZM212.023 59V39.3636H214.938V42.3295H215.142C215.5 41.358 216.148 40.5696 217.086 39.9645C218.023 39.3594 219.08 39.0568 220.256 39.0568C220.478 39.0568 220.755 39.0611 221.087 39.0696C221.419 39.0781 221.671 39.0909 221.841 39.108V42.1761C221.739 42.1506 221.505 42.1122 221.138 42.0611C220.78 42.0014 220.401 41.9716 220 41.9716C219.046 41.9716 218.194 42.1719 217.444 42.5724C216.702 42.9645 216.114 43.5099 215.679 44.2088C215.253 44.8991 215.04 45.6875 215.04 46.5739V59H212.023ZM231.196 59.4602C229.952 59.4602 228.822 59.2259 227.808 58.7571C226.794 58.2798 225.989 57.5938 225.392 56.6989C224.795 55.7955 224.497 54.7045 224.497 53.4261C224.497 52.3011 224.719 51.3892 225.162 50.6903C225.605 49.983 226.197 49.429 226.939 49.0284C227.68 48.6278 228.499 48.3295 229.393 48.1335C230.297 47.929 231.205 47.767 232.116 47.6477C233.31 47.4943 234.277 47.3793 235.018 47.3026C235.768 47.2173 236.314 47.0767 236.655 46.8807C237.004 46.6847 237.179 46.3437 237.179 45.858V45.7557C237.179 44.4943 236.834 43.5142 236.143 42.8153C235.462 42.1165 234.426 41.767 233.037 41.767C231.597 41.767 230.467 42.0824 229.649 42.7131C228.831 43.3437 228.256 44.017 227.923 44.733L225.06 43.7102C225.571 42.517 226.253 41.5881 227.105 40.9233C227.966 40.25 228.903 39.7812 229.918 39.517C230.94 39.2443 231.946 39.108 232.935 39.108C233.565 39.108 234.29 39.1847 235.108 39.3381C235.935 39.483 236.732 39.7855 237.499 40.2457C238.274 40.706 238.918 41.4006 239.429 42.3295C239.94 43.2585 240.196 44.5028 240.196 46.0625V59H237.179V56.3409H237.026C236.821 56.767 236.48 57.223 236.003 57.7088C235.526 58.1946 234.891 58.608 234.098 58.9489C233.305 59.2898 232.338 59.4602 231.196 59.4602ZM231.656 56.75C232.849 56.75 233.855 56.5156 234.673 56.0469C235.5 55.5781 236.122 54.973 236.54 54.2315C236.966 53.4901 237.179 52.7102 237.179 51.892V49.1307C237.051 49.2841 236.77 49.4247 236.335 49.5526C235.909 49.6719 235.415 49.7784 234.852 49.8722C234.298 49.9574 233.757 50.0341 233.229 50.1023C232.709 50.1619 232.287 50.2131 231.963 50.2557C231.179 50.358 230.446 50.5241 229.764 50.7543C229.091 50.9759 228.545 51.3125 228.128 51.7642C227.719 52.2074 227.514 52.8125 227.514 53.5795C227.514 54.6278 227.902 55.4205 228.678 55.9574C229.462 56.4858 230.455 56.75 231.656 56.75Z" fill="white"/>
<path d="M18.9813 33.0357C20.2004 32.5801 21.4652 32.7178 22.4431 33.5766C22.4431 33.5766 23.2745 34.4719 23.5249 35.0912C23.9525 36.1487 23.2003 38.1202 23.2003 38.1202L35.7494 49.6956C35.7494 49.6956 36.2768 49.5874 36.6148 49.5874C37.2908 49.5874 37.6912 49.5267 38.3457 49.6956C39.174 49.9094 40.1848 50.8856 40.1848 50.8856L44.7284 48.6138L44.9448 50.5611L40.7257 52.6165C40.7257 52.6165 40.9148 53.9589 40.5093 54.672C39.8895 55.762 39.0534 56.2866 37.8048 56.4029C36.3373 56.5395 35.1846 55.9503 34.4512 54.672C33.7784 53.4994 34.4512 51.2102 34.4512 51.2102L22.2267 39.3102C22.2267 39.3102 21.0585 39.6348 20.2795 39.6348C19.414 39.6348 18.1158 38.7693 18.1158 38.7693C17.2148 37.9295 16.8863 36.8549 17.034 35.6321C17.186 34.3738 17.7941 33.4795 18.9813 33.0357Z" fill="#D9D9D9"/>
<path d="M47.5411 43.8539C47.3248 43.8539 46.6757 42.8802 46.6757 42.8802C46.6757 42.8802 46.0986 45.1002 46.1348 46.5584C46.1636 47.7181 46.1541 48.6846 46.4593 49.8038C46.8783 51.3402 47.2239 52.1079 48.1902 53.3738C48.991 54.4229 49.7503 54.9881 50.8947 55.6456C51.9152 56.2319 53.5993 56.6192 53.5993 56.6192C53.5993 56.6192 56.1174 56.9413 57.7102 56.5111C58.5887 56.2737 59.8738 55.5374 59.8738 55.5374C59.8738 55.5374 61.5607 54.3818 62.362 53.3738C63.1382 52.3972 63.8765 50.5611 63.8765 50.5611L62.1456 46.5584C62.1456 46.5584 62.2208 49.1353 61.4965 50.5611C60.9645 51.6083 59.6574 52.9411 59.6574 52.9411C59.6574 52.9411 58.1948 53.9992 56.9529 54.3474C55.7325 54.6896 54.1402 54.3474 54.1402 54.3474C54.1402 54.3474 52.4921 54.0182 51.652 53.3738C51.0029 52.8759 50.0293 51.7511 50.0293 51.7511C50.0293 51.7511 49.0552 50.6962 48.7311 49.8038C48.3119 48.6495 48.4066 46.5584 48.4066 46.5584L48.6229 43.6375C48.6229 43.6375 47.7575 43.8538 47.5411 43.8539Z" fill="#D9D9D9"/>
<path d="M63.011 54.672L61.7129 55.862L67.9874 62.3528C67.9874 62.3528 67.7013 63.1969 67.6628 63.7592C67.595 64.7513 67.6488 65.4222 68.2037 66.2474C68.8588 67.2214 69.6272 67.7152 70.8001 67.7619C71.9707 67.8085 72.7768 67.3818 73.5046 66.4637C74.2306 65.5481 74.3856 64.6881 74.1537 63.5428C73.9811 62.6902 73.7194 62.1765 73.0719 61.5956C72.4236 61.0139 71.6924 60.6456 71.0165 60.7301L69.2856 60.9465L63.011 54.672Z" fill="#D9D9D9"/>
<path d="M49.3802 42.2311C49.3802 42.2311 48.638 42.572 48.1902 42.4475C47.1398 42.1555 46.4593 39.9593 46.4593 39.9593L45.9184 36.4975C45.9184 36.4975 45.7093 35.7403 46.4593 34.3339C47.2094 32.9275 54.3565 28.7085 54.3565 28.7085C54.3565 28.7085 55.1138 28.4921 56.1956 28.9248C57.2774 29.3576 57.9265 30.4394 57.9265 30.4394V35.6321L57.8183 38.5529L58.1429 39.0939L63.9847 39.2021C63.9847 39.2021 65.1747 39.9593 65.4992 40.7166C65.8238 41.4739 69.1774 50.1284 69.1774 50.1284C69.1774 50.1284 71.1246 49.2629 71.8819 49.1547C72.6392 49.0465 72.6023 49.342 72.8555 49.6956C73.1998 50.1766 72.8555 51.2102 72.8555 51.2102C72.8555 51.2102 70.2008 53.4288 68.2037 53.5902C67.7405 53.6276 67.0137 53.3738 67.0137 53.3738L62.6865 43.6375L54.2484 43.5293L52.9502 42.4475C52.5175 42.0869 51.8684 41.1493 51.8684 40.7166C51.8684 40.2839 51.7602 35.9927 51.7602 34.0094L48.8393 36.4975V37.4712L49.8129 39.9593C49.8129 39.9593 50.1133 40.9145 49.9211 41.4739C49.8104 41.796 49.3802 42.2311 49.3802 42.2311Z" fill="#D9D9D9"/>
<path d="M57.7102 26.1121C57.0755 26.7435 56.4416 26.884 55.5465 26.8694C54.6912 26.8554 54.0046 26.808 53.3829 26.2203C52.8061 25.675 52.4093 25.2467 52.3011 24.273C52.1929 23.2994 52.4093 22.3258 52.842 21.5685C53.2747 20.8112 53.7075 20.4867 54.3565 20.1622C55.0056 19.8376 56.4904 20.0094 57.3856 20.5949C58.1707 21.1083 58.4177 21.7508 58.6838 22.6503C58.9115 23.42 58.5756 24.8139 58.5756 24.8139C58.5756 24.8139 58.179 25.6458 57.7102 26.1121Z" fill="#D9D9D9"/>
<rect x="10" y="12" width="249" height="67" rx="9" fill="#2E3192"/>
<rect x="12" y="14" width="245" height="63" rx="8" fill="#2E3192" stroke="white" stroke-width="2"/>
<path d="M88.2443 32.8182L96.017 54.858H96.3239L104.097 32.8182H107.42L97.8068 59H94.5341L84.9205 32.8182H88.2443ZM111.089 59V39.3636H114.107V59H111.089ZM112.624 36.0909C112.036 36.0909 111.528 35.8906 111.102 35.4901C110.685 35.0895 110.476 34.608 110.476 34.0455C110.476 33.483 110.685 33.0014 111.102 32.6009C111.528 32.2003 112.036 32 112.624 32C113.212 32 113.714 32.2003 114.132 32.6009C114.558 33.0014 114.771 33.483 114.771 34.0455C114.771 34.608 114.558 35.0895 114.132 35.4901C113.714 35.8906 113.212 36.0909 112.624 36.0909ZM125.411 59.4602C124.167 59.4602 123.037 59.2259 122.023 58.7571C121.009 58.2798 120.203 57.5938 119.607 56.6989C119.01 55.7955 118.712 54.7045 118.712 53.4261C118.712 52.3011 118.934 51.3892 119.377 50.6903C119.82 49.983 120.412 49.429 121.154 49.0284C121.895 48.6278 122.713 48.3295 123.608 48.1335C124.512 47.929 125.419 47.767 126.331 47.6477C127.525 47.4943 128.492 47.3793 129.233 47.3026C129.983 47.2173 130.529 47.0767 130.87 46.8807C131.219 46.6847 131.394 46.3437 131.394 45.858V45.7557C131.394 44.4943 131.049 43.5142 130.358 42.8153C129.676 42.1165 128.641 41.767 127.252 41.767C125.811 41.767 124.682 42.0824 123.864 42.7131C123.046 43.3437 122.471 44.017 122.138 44.733L119.275 43.7102C119.786 42.517 120.468 41.5881 121.32 40.9233C122.181 40.25 123.118 39.7812 124.132 39.517C125.155 39.2443 126.161 39.108 127.15 39.108C127.78 39.108 128.505 39.1847 129.323 39.3381C130.15 39.483 130.946 39.7855 131.713 40.2457C132.489 40.706 133.132 41.4006 133.644 42.3295C134.155 43.2585 134.411 44.5028 134.411 46.0625V59H131.394V56.3409H131.24C131.036 56.767 130.695 57.223 130.218 57.7088C129.74 58.1946 129.105 58.608 128.313 58.9489C127.52 59.2898 126.553 59.4602 125.411 59.4602ZM125.871 56.75C127.064 56.75 128.07 56.5156 128.888 56.0469C129.715 55.5781 130.337 54.973 130.755 54.2315C131.181 53.4901 131.394 52.7102 131.394 51.892V49.1307C131.266 49.2841 130.985 49.4247 130.55 49.5526C130.124 49.6719 129.63 49.7784 129.067 49.8722C128.513 49.9574 127.972 50.0341 127.444 50.1023C126.924 50.1619 126.502 50.2131 126.178 50.2557C125.394 50.358 124.661 50.5241 123.979 50.7543C123.306 50.9759 122.76 51.3125 122.343 51.7642C121.934 52.2074 121.729 52.8125 121.729 53.5795C121.729 54.6278 122.117 55.4205 122.892 55.9574C123.676 56.4858 124.669 56.75 125.871 56.75ZM140.327 59V32.8182H143.497V56.1875H155.668V59H140.327ZM160.168 59V39.3636H163.185V59H160.168ZM161.702 36.0909C161.114 36.0909 160.607 35.8906 160.18 35.4901C159.763 35.0895 159.554 34.608 159.554 34.0455C159.554 33.483 159.763 33.0014 160.18 32.6009C160.607 32.2003 161.114 32 161.702 32C162.29 32 162.793 32.2003 163.21 32.6009C163.636 33.0014 163.849 33.483 163.849 34.0455C163.849 34.608 163.636 35.0895 163.21 35.4901C162.793 35.8906 162.29 36.0909 161.702 36.0909ZM169.12 59V32.8182H172.137V42.483H172.392C172.614 42.142 172.921 41.7074 173.313 41.179C173.713 40.642 174.284 40.1648 175.026 39.7472C175.776 39.321 176.79 39.108 178.069 39.108C179.722 39.108 181.179 39.5213 182.441 40.348C183.702 41.1747 184.686 42.3466 185.394 43.8636C186.101 45.3807 186.455 47.1705 186.455 49.233C186.455 51.3125 186.101 53.1151 185.394 54.6406C184.686 56.1577 183.706 57.3338 182.453 58.169C181.201 58.9957 179.756 59.4091 178.12 59.4091C176.858 59.4091 175.848 59.2003 175.09 58.7827C174.331 58.3565 173.748 57.875 173.338 57.3381C172.929 56.7926 172.614 56.3409 172.392 55.983H172.034V59H169.12ZM172.086 49.1818C172.086 50.6648 172.303 51.973 172.738 53.1065C173.172 54.2315 173.807 55.1136 174.642 55.7528C175.478 56.3835 176.5 56.6989 177.711 56.6989C178.972 56.6989 180.025 56.3665 180.868 55.7017C181.721 55.0284 182.36 54.125 182.786 52.9915C183.221 51.8494 183.438 50.5795 183.438 49.1818C183.438 47.8011 183.225 46.5568 182.799 45.4489C182.381 44.3324 181.746 43.4503 180.894 42.8026C180.05 42.1463 178.989 41.8182 177.711 41.8182C176.483 41.8182 175.452 42.1293 174.617 42.7514C173.782 43.3651 173.151 44.2259 172.725 45.3338C172.299 46.4332 172.086 47.7159 172.086 49.1818ZM199.303 59.4091C197.411 59.4091 195.779 58.9915 194.407 58.1562C193.043 57.3125 191.99 56.1364 191.249 54.6278C190.516 53.1108 190.15 51.3466 190.15 49.3352C190.15 47.3239 190.516 45.5511 191.249 44.017C191.99 42.4744 193.022 41.2727 194.343 40.4119C195.672 39.5426 197.223 39.108 198.996 39.108C200.019 39.108 201.029 39.2784 202.026 39.6193C203.023 39.9602 203.931 40.5142 204.749 41.2812C205.567 42.0398 206.219 43.0455 206.705 44.2983C207.191 45.5511 207.434 47.0937 207.434 48.9261V50.2045H192.297V47.5966H204.365C204.365 46.4886 204.144 45.5 203.701 44.6307C203.266 43.7614 202.644 43.0753 201.834 42.5724C201.033 42.0696 200.087 41.8182 198.996 41.8182C197.794 41.8182 196.755 42.1165 195.877 42.7131C195.007 43.3011 194.338 44.0682 193.87 45.0142C193.401 45.9602 193.167 46.9744 193.167 48.0568V49.7955C193.167 51.2784 193.422 52.5355 193.934 53.5668C194.453 54.5895 195.174 55.3693 196.094 55.9062C197.015 56.4347 198.084 56.6989 199.303 56.6989C200.096 56.6989 200.811 56.5881 201.451 56.3665C202.098 56.1364 202.657 55.7955 203.125 55.3438C203.594 54.8835 203.956 54.3125 204.212 53.6307L207.127 54.4489C206.82 55.4375 206.304 56.3068 205.58 57.0568C204.855 57.7983 203.961 58.3778 202.895 58.7955C201.83 59.2045 200.632 59.4091 199.303 59.4091ZM212.023 59V39.3636H214.938V42.3295H215.142C215.5 41.358 216.148 40.5696 217.086 39.9645C218.023 39.3594 219.08 39.0568 220.256 39.0568C220.478 39.0568 220.755 39.0611 221.087 39.0696C221.419 39.0781 221.671 39.0909 221.841 39.108V42.1761C221.739 42.1506 221.505 42.1122 221.138 42.0611C220.78 42.0014 220.401 41.9716 220 41.9716C219.046 41.9716 218.194 42.1719 217.444 42.5724C216.702 42.9645 216.114 43.5099 215.679 44.2088C215.253 44.8991 215.04 45.6875 215.04 46.5739V59H212.023ZM231.196 59.4602C229.952 59.4602 228.822 59.2259 227.808 58.7571C226.794 58.2798 225.989 57.5938 225.392 56.6989C224.795 55.7955 224.497 54.7045 224.497 53.4261C224.497 52.3011 224.719 51.3892 225.162 50.6903C225.605 49.983 226.197 49.429 226.939 49.0284C227.68 48.6278 228.499 48.3295 229.393 48.1335C230.297 47.929 231.205 47.767 232.116 47.6477C233.31 47.4943 234.277 47.3793 235.018 47.3026C235.768 47.2173 236.314 47.0767 236.655 46.8807C237.004 46.6847 237.179 46.3437 237.179 45.858V45.7557C237.179 44.4943 236.834 43.5142 236.143 42.8153C235.462 42.1165 234.426 41.767 233.037 41.767C231.597 41.767 230.467 42.0824 229.649 42.7131C228.831 43.3437 228.256 44.017 227.923 44.733L225.06 43.7102C225.571 42.517 226.253 41.5881 227.105 40.9233C227.966 40.25 228.903 39.7812 229.918 39.517C230.94 39.2443 231.946 39.108 232.935 39.108C233.565 39.108 234.29 39.1847 235.108 39.3381C235.935 39.483 236.732 39.7855 237.499 40.2457C238.274 40.706 238.918 41.4006 239.429 42.3295C239.94 43.2585 240.196 44.5028 240.196 46.0625V59H237.179V56.3409H237.026C236.821 56.767 236.48 57.223 236.003 57.7088C235.526 58.1946 234.891 58.608 234.098 58.9489C233.305 59.2898 232.338 59.4602 231.196 59.4602ZM231.656 56.75C232.849 56.75 233.855 56.5156 234.673 56.0469C235.5 55.5781 236.122 54.973 236.54 54.2315C236.966 53.4901 237.179 52.7102 237.179 51.892V49.1307C237.051 49.2841 236.77 49.4247 236.335 49.5526C235.909 49.6719 235.415 49.7784 234.852 49.8722C234.298 49.9574 233.757 50.0341 233.229 50.1023C232.709 50.1619 232.287 50.2131 231.963 50.2557C231.179 50.358 230.446 50.5241 229.764 50.7543C229.091 50.9759 228.545 51.3125 228.128 51.7642C227.719 52.2074 227.514 52.8125 227.514 53.5795C227.514 54.6278 227.902 55.4205 228.678 55.9574C229.462 56.4858 230.455 56.75 231.656 56.75Z" fill="white"/>
<path d="M18.9813 33.0357C20.2004 32.5801 21.4652 32.7178 22.4431 33.5766C22.4431 33.5766 23.2745 34.4719 23.5249 35.0912C23.9525 36.1487 23.2003 38.1202 23.2003 38.1202L35.7494 49.6956C35.7494 49.6956 36.2768 49.5874 36.6148 49.5874C37.2908 49.5874 37.6912 49.5267 38.3457 49.6956C39.174 49.9094 40.1848 50.8856 40.1848 50.8856L44.7284 48.6138L44.9448 50.5611L40.7257 52.6165C40.7257 52.6165 40.9148 53.9589 40.5093 54.672C39.8895 55.762 39.0534 56.2866 37.8048 56.4029C36.3373 56.5395 35.1846 55.9503 34.4512 54.672C33.7784 53.4994 34.4512 51.2102 34.4512 51.2102L22.2267 39.3102C22.2267 39.3102 21.0585 39.6348 20.2795 39.6348C19.414 39.6348 18.1158 38.7693 18.1158 38.7693C17.2148 37.9295 16.8863 36.8549 17.034 35.6321C17.186 34.3738 17.7941 33.4795 18.9813 33.0357Z" fill="#D9D9D9"/>
<path d="M47.5411 43.8539C47.3248 43.8539 46.6757 42.8802 46.6757 42.8802C46.6757 42.8802 46.0986 45.1002 46.1348 46.5584C46.1636 47.7181 46.1541 48.6846 46.4593 49.8038C46.8783 51.3402 47.2239 52.1079 48.1902 53.3738C48.991 54.4229 49.7503 54.9881 50.8947 55.6456C51.9152 56.2319 53.5993 56.6192 53.5993 56.6192C53.5993 56.6192 56.1174 56.9413 57.7102 56.5111C58.5887 56.2737 59.8738 55.5374 59.8738 55.5374C59.8738 55.5374 61.5607 54.3818 62.362 53.3738C63.1382 52.3972 63.8765 50.5611 63.8765 50.5611L62.1456 46.5584C62.1456 46.5584 62.2208 49.1353 61.4965 50.5611C60.9645 51.6083 59.6574 52.9411 59.6574 52.9411C59.6574 52.9411 58.1948 53.9992 56.9529 54.3474C55.7325 54.6896 54.1402 54.3474 54.1402 54.3474C54.1402 54.3474 52.4921 54.0182 51.652 53.3738C51.0029 52.8759 50.0293 51.7511 50.0293 51.7511C50.0293 51.7511 49.0552 50.6962 48.7311 49.8038C48.3119 48.6495 48.4066 46.5584 48.4066 46.5584L48.6229 43.6375C48.6229 43.6375 47.7575 43.8538 47.5411 43.8539Z" fill="#D9D9D9"/>
<path d="M63.011 54.672L61.7129 55.862L67.9874 62.3528C67.9874 62.3528 67.7013 63.1969 67.6628 63.7592C67.595 64.7513 67.6488 65.4222 68.2037 66.2474C68.8588 67.2214 69.6272 67.7152 70.8001 67.7619C71.9707 67.8085 72.7768 67.3818 73.5046 66.4637C74.2306 65.5481 74.3856 64.6881 74.1537 63.5428C73.9811 62.6902 73.7194 62.1765 73.0719 61.5956C72.4236 61.0139 71.6924 60.6456 71.0165 60.7301L69.2856 60.9465L63.011 54.672Z" fill="#D9D9D9"/>
<path d="M49.3802 42.2311C49.3802 42.2311 48.638 42.572 48.1902 42.4475C47.1398 42.1555 46.4593 39.9593 46.4593 39.9593L45.9184 36.4975C45.9184 36.4975 45.7093 35.7403 46.4593 34.3339C47.2094 32.9275 54.3565 28.7085 54.3565 28.7085C54.3565 28.7085 55.1138 28.4921 56.1956 28.9248C57.2774 29.3576 57.9265 30.4394 57.9265 30.4394V35.6321L57.8183 38.5529L58.1429 39.0939L63.9847 39.2021C63.9847 39.2021 65.1747 39.9593 65.4992 40.7166C65.8238 41.4739 69.1774 50.1284 69.1774 50.1284C69.1774 50.1284 71.1246 49.2629 71.8819 49.1547C72.6392 49.0465 72.6023 49.342 72.8555 49.6956C73.1998 50.1766 72.8555 51.2102 72.8555 51.2102C72.8555 51.2102 70.2008 53.4288 68.2037 53.5902C67.7405 53.6276 67.0137 53.3738 67.0137 53.3738L62.6865 43.6375L54.2484 43.5293L52.9502 42.4475C52.5175 42.0869 51.8684 41.1493 51.8684 40.7166C51.8684 40.2839 51.7602 35.9927 51.7602 34.0094L48.8393 36.4975V37.4712L49.8129 39.9593C49.8129 39.9593 50.1133 40.9145 49.9211 41.4739C49.8104 41.796 49.3802 42.2311 49.3802 42.2311Z" fill="#D9D9D9"/>
<path d="M57.7102 26.1121C57.0755 26.7435 56.4416 26.884 55.5465 26.8694C54.6912 26.8554 54.0046 26.808 53.3829 26.2203C52.8061 25.675 52.4093 25.2467 52.3011 24.273C52.1929 23.2994 52.4093 22.3258 52.842 21.5685C53.2747 20.8112 53.7075 20.4867 54.3565 20.1622C55.0056 19.8376 56.4904 20.0094 57.3856 20.5949C58.1707 21.1083 58.4177 21.7508 58.6838 22.6503C58.9115 23.42 58.5756 24.8139 58.5756 24.8139C58.5756 24.8139 58.179 25.6458 57.7102 26.1121Z" fill="#D9D9D9"/>
</svg>
