<svg width="246" height="246" viewBox="0 0 246 246" fill="none" xmlns="http://www.w3.org/2000/svg">
<path d="M75.8 134.8C75.8 118.103 75.8 109.76 80.992 104.592C86.1722 99.4 94.5148 99.4 111.2 99.4H134.8C151.497 99.4 159.84 99.4 165.008 104.592C170.2 109.772 170.2 118.115 170.2 134.8V241V205.6C170.2 188.903 170.2 180.56 175.392 175.392C180.572 170.2 188.903 170.2 205.6 170.2C222.297 170.2 230.64 170.2 235.808 175.392C241 180.572 241 188.915 241 205.6V241M75.8 182V241C75.8 224.315 75.8 215.972 70.608 210.792C65.4396 205.6 57.097 205.6 40.4 205.6C23.703 205.6 15.3722 205.6 10.192 210.792C5 215.96 5 224.303 5 241" stroke="black" stroke-width="10" stroke-linecap="round"/>
<path d="M112.923 17.0714C117.407 9.012 119.649 5 123 5C126.351 5 128.593 9.012 133.077 17.0714L134.234 19.1482C135.508 21.4374 136.145 22.5702 137.136 23.3254C138.139 24.0806 139.378 24.3638 141.856 24.9184L144.098 25.4376C152.807 27.4082 157.161 28.3876 158.199 31.7152C159.238 35.0428 156.264 38.5238 150.329 45.4622L148.795 47.2558C147.107 49.2264 146.258 50.2058 145.88 51.433C145.503 52.6602 145.632 53.97 145.88 56.6014L146.116 58.9968C147.013 68.2598 147.461 72.8972 144.759 74.9504C142.045 77.0154 137.962 75.1274 129.809 71.375L127.708 70.4074C125.384 69.3454 124.227 68.8026 123 68.8026C121.773 68.8026 120.616 69.3454 118.292 70.4074L116.191 71.375C108.038 75.1274 103.955 77.0154 101.241 74.9504C98.5268 72.8972 98.987 68.2598 99.8838 58.9968L100.12 56.6014C100.368 53.97 100.497 52.6602 100.12 51.433C99.7422 50.2058 98.8926 49.2264 97.2052 47.2558L95.6712 45.4622C89.7358 38.5238 86.7622 35.0546 87.8006 31.7152C88.839 28.3876 93.1932 27.4082 101.902 25.4376L104.144 24.9184C106.622 24.3638 107.861 24.0924 108.864 23.3254C109.855 22.5702 110.492 21.4374 111.766 19.1482L112.923 17.0714Z" stroke="black" stroke-width="10"/>
</svg>
